<svg xmlns="http://www.w3.org/2000/svg" id="SvgjsSvg854763" width="2980.495579215218" height="4096" version="1.1" xmlns:xlink="http://www.w3.org/1999/xlink" xmlns:svgjs="http://svgjs.com/svgjs"><defs id="SvgjsDefs854764"></defs><rect id="SvgjsRect854765" width="2980.495579215218" height="4096" fill="#ffffff"></rect><g id="SvgjsG854766" transform="translate(328, 328) scale(34.4)" opacity="1"><defs id="SvgjsDefs256290"></defs><g id="SvgjsG256291" transform="scale(0.3510037929623765)" opacity="1"><g id="SvgjsG256292" class="dlX8uoakU" transform="translate(-60.69793669512736, -16.83127447408779) scale(3.062458965445376)" light-content="false" non-strokable="false" fill="#f5a623"><path d="M53.075 92.004H29.429c-5.299 0-9.609-4.312-9.609-9.609V35.103c0-5.295 4.311-9.607 9.609-9.607h23.646c5.295 0 9.606 4.312 9.606 9.607v47.292c.001 5.297-4.311 9.609-9.606 9.609zM29.429 28.948a6.164 6.164 0 0 0-6.158 6.155v47.292a6.167 6.167 0 0 0 6.158 6.158h23.646c3.394 0 6.154-2.765 6.154-6.158V35.103a6.161 6.161 0 0 0-6.154-6.155H29.429z"></path><path d="M27.458 33.134h27.585v51.232H27.458zm42.724 2.362a2.5 2.5 0 0 1-2.5-2.5c0-6.893-5.607-12.5-12.5-12.5a2.5 2.5 0 1 1 0-5c9.649 0 17.5 7.851 17.5 17.5a2.5 2.5 0 0 1-2.5 2.5z"></path><path d="M80.182 35.496a2.5 2.5 0 0 1-2.5-2.5c0-12.407-10.094-22.5-22.5-22.5a2.5 2.5 0 1 1 0-5c15.163 0 27.5 12.336 27.5 27.5a2.5 2.5 0 0 1-2.5 2.5z"></path></g><g id="SvgjsG256293" class="IFBrowyqjD" transform="translate(30.633511264378622, 165.25959948130685) scale(0.7012838522953232)" light-content="false" non-strokable="false" fill="#ffffff"><path d="M34.4 24.5c1.5-3.3 3.6-6.4 6.3-9.1 12.1-12.1 31.7-12.1 43.8 0s12.1 31.7 0 43.8c-2.7 2.7-5.8 4.8-9.1 6.3.8-10.7-2.9-21.8-11.1-30-8.1-8.1-19.1-11.8-29.9-11zm3 7.2c-17.1 0-31 13.9-31 31s13.9 31 31 31 31-13.9 31-31c-.1-17.2-13.9-31-31-31zm10.8 46.6c-.9.4-1.9.8-2.9 1-3.8 1-7.6 1.1-11.3-.1-4.5-1.5-7.5-4.6-9.3-8.9-.3-.8-.6-1.7-.8-2.6h-3.6c-.6 0-1.1-.5-1.1-1.1v-2.4c0-.6.5-1.1 1.1-1.1h2.9v-1.9h-2.9c-.6 0-1.1-.5-1.1-1.1v-2.4c0-.6.5-1.1 1.1-1.1H24l.1-.4c1-3.2 2.7-5.9 5.4-8 2.1-1.6 4.6-2.5 7.2-3 3.7-.6 7.4-.1 10.9 1.3.2.1.4.2.7.3.8.5 1.1 1.1.7 2-.4.9-.8 1.9-1.2 2.8-.4.8-.9 1.1-1.7.9-1.2-.3-2.3-.6-3.5-.9-2.5-.5-5-.5-7.4.4-2.1.8-3.4 2.4-4.2 4.4v.1h7c.6 0 1.1.5 1.1 1.1V60c0 .6-.5 1.1-1.1 1.1h-8.3V63H38c.6 0 1.1.5 1.1 1.1v2.4c0 .6-.5 1.1-1.1 1.1h-7.6c.9 2.6 2.4 4.6 5.2 5.5 2.2.7 4.5.7 6.8.2 1.2-.2 2.3-.6 3.5-.9.9-.2 1.4 0 1.8.9.4.9.8 1.9 1.2 2.9.4 1 .2 1.7-.7 2.1z"></path></g><g id="SvgjsG256294" class="dyoc7w-pUs" transform="translate(23.209784302674635, 64.32703768573275) scale(1.0208400879475559) rotate(277, 50, 49.999)" light-content="false" non-strokable="false" fill="#ffffff"><path d="M33.37 60.29c-.275.174-.591.369-.946.582a37.552 37.552 0 0 1-3.246 1.739c-.021.132-.03.265-.015.39.082.671.468 1.566.915 1.969 1.094.989 1.934 1.466 4.347 1.225 1.034-.105 2.242-.519 3.424-1.04a33.377 33.377 0 0 0-4.479-4.865zm-18.081-2.234v-.004zm14.502-.416a6.171 6.171 0 0 0-.233-.127l-.143-.07-6.174-3.92a40.116 40.116 0 0 1-3.712 2.108l-.482.48s-.521.864-.438 1.532c.083.67.468 1.564.915 1.969 1.094.986 1.934 1.465 4.348 1.222 2.063-.207 4.814-1.635 6.665-2.73-.32-.211-.579-.368-.746-.464zm22.96-13.02zm-.217.286c.063-.076.116-.143.153-.194l.038-.164c.056-.255.118-.619.172-.979l.013-.096-9.134-.546 5.535 3.032 2.13.127.154-.152c.377-.383.723-.759.939-1.028zm-47.533 6.49v-.005L5 51.389zM5 51.387v.002-.004zm23.938-22.095l-.015-.015-.16.16c-.439.33-.826.718-1.155 1.155l-1.916 1.917c.138.038.277.072.412.115 1.152.368 2.19.859 3.107 1.466.947.63 2.61 1.692 4.292 2.757 1.325.838 2.663 1.679 3.714 2.337l13.315.796-8.818-11.742h-9.428a5.82 5.82 0 0 0-3.348 1.054zm-8.843 22.233l-1.208-.769-.038-.025c-.1-.067-.872-.591-1.859-1.499-.984-.915-2.203-2.197-3.133-3.961-.106-.199-.199-.417-.295-.632l-4.805 4.805s-.521.863-.438 1.53c.083.67.468 1.565.915 1.969 1.094.987 1.934 1.465 4.347 1.223 2.008-.202 4.666-1.56 6.514-2.641zM6.447 12.637v-.006l-.001-.009zm-.002-.028l.001.013v-.001z"></path><path d="M71.558 29.712a10.016 10.016 0 0 0-1.765-2.109l.002-.002-.013-.006a9.888 9.888 0 0 0-2.673-1.735L43.642 10.62l-.072-.05-.072-.047-.001.007a5.636 5.636 0 0 0-3.053-.905H11.921s-.978.242-1.392.774c-.415.532-.775 1.436-.745 2.039.074 1.472.332 2.402 2.209 3.938 2.647 2.165 8.979 3.311 8.979 3.311l19.469 1.287 15.972 21.271s-.255 3.049-.71 3.941c-.732 1.433-4.463 4.641-4.463 4.641l-13.806-7.564s-7.418-4.624-10.075-6.39c-2.657-1.765-8.217-2.865-10.699 1.911-2.484 4.777 4.053 9.171 4.053 9.171l10.342 6.567s6.048 2.985 11.399 11.395c5.349 8.408 12.339 15.655 16.169 17.102 3.831 1.443 19.504 7.354 19.504 7.354L95 66.682l-23.442-36.97z"></path></g><g id="SvgjsG256295" class="text" transform="translate(71.65, 282.5172062171678) scale(1)" light-content="false" fill="#4a4a4a"><path d="M-64.34 -5.47C-64.49 -5.54 -64.63 -5.57 -64.76 -5.57C-65.09 -5.57 -65.34 -5.35 -65.51 -4.9L-66.15 -3.17C-66.21 -3.31 -66.42 -3.86 -66.77 -4.84L-66.85 -5.02C-66.9 -5.13 -67.01 -5.24 -67.16 -5.35C-67.31 -5.46 -67.49 -5.52 -67.7 -5.52C-67.9 -5.52 -68.11 -5.42 -68.31 -5.22C-68.42 -5.11 -68.5 -4.99 -68.54 -4.85L-69.16 -3.16C-69.54 -4.19 -69.78 -4.84 -69.9 -5.12C-69.92 -5.19 -69.95 -5.25 -69.99 -5.31C-70.02 -5.36 -70.08 -5.42 -70.17 -5.48C-70.26 -5.54 -70.37 -5.57 -70.51 -5.57C-70.65 -5.57 -70.83 -5.53 -71.05 -5.44C-71.45 -5.28 -71.65 -5.06 -71.65 -4.78C-71.65 -4.71 -71.61 -4.58 -71.54 -4.37L-69.96 -0.52C-69.92 -0.4 -69.82 -0.27 -69.67 -0.15C-69.53 -0.03 -69.34 0.03 -69.13 0.03C-68.91 0.03 -68.72 -0.05 -68.55 -0.22C-68.49 -0.28 -68.43 -0.36 -68.39 -0.44C-68.34 -0.52 -68.31 -0.58 -68.3 -0.61C-68.29 -0.64 -68.26 -0.71 -68.22 -0.8C-68.19 -0.89 -68.1 -1.13 -67.96 -1.51C-67.83 -1.89 -67.72 -2.16 -67.65 -2.33C-67.3 -1.38 -67.09 -0.84 -67.04 -0.7L-66.95 -0.52C-66.9 -0.4 -66.81 -0.27 -66.66 -0.15C-66.51 -0.03 -66.35 0.03 -66.19 0.03C-66.03 0.03 -65.9 0.01 -65.79 -0.04C-65.55 -0.17 -65.37 -0.38 -65.27 -0.69L-64.12 -3.49C-64.04 -3.69 -63.95 -3.92 -63.84 -4.18C-63.73 -4.44 -63.67 -4.63 -63.67 -4.75C-63.67 -5.03 -63.89 -5.27 -64.34 -5.47Z M-53.96 -5.47C-54.11 -5.54 -54.24 -5.57 -54.38 -5.57C-54.71 -5.57 -54.96 -5.35 -55.13 -4.9L-55.77 -3.17C-55.83 -3.31 -56.04 -3.86 -56.38 -4.84L-56.47 -5.02C-56.52 -5.13 -56.63 -5.24 -56.78 -5.35C-56.93 -5.46 -57.11 -5.52 -57.31 -5.52C-57.52 -5.52 -57.73 -5.42 -57.93 -5.22C-58.04 -5.11 -58.12 -4.99 -58.16 -4.85L-58.78 -3.16C-59.15 -4.19 -59.4 -4.84 -59.52 -5.12C-59.54 -5.19 -59.57 -5.25 -59.6 -5.31C-59.64 -5.36 -59.7 -5.42 -59.79 -5.48C-59.87 -5.54 -59.99 -5.57 -60.13 -5.57C-60.27 -5.57 -60.45 -5.53 -60.67 -5.44C-61.07 -5.28 -61.27 -5.06 -61.27 -4.78C-61.27 -4.71 -61.23 -4.58 -61.16 -4.37L-59.58 -0.52C-59.53 -0.4 -59.44 -0.27 -59.29 -0.15C-59.14 -0.03 -58.96 0.03 -58.75 0.03C-58.53 0.03 -58.34 -0.05 -58.17 -0.22C-58.11 -0.28 -58.05 -0.36 -58 -0.44C-57.96 -0.52 -57.93 -0.58 -57.92 -0.61C-57.91 -0.64 -57.88 -0.71 -57.84 -0.8C-57.8 -0.89 -57.72 -1.13 -57.58 -1.51C-57.45 -1.89 -57.34 -2.16 -57.27 -2.33C-56.92 -1.38 -56.71 -0.84 -56.66 -0.7L-56.57 -0.52C-56.52 -0.4 -56.42 -0.27 -56.27 -0.15C-56.12 -0.03 -55.97 0.03 -55.81 0.03C-55.65 0.03 -55.52 0.01 -55.41 -0.04C-55.17 -0.17 -54.99 -0.38 -54.89 -0.69L-53.74 -3.49C-53.66 -3.69 -53.57 -3.92 -53.46 -4.18C-53.35 -4.44 -53.29 -4.63 -53.29 -4.75C-53.29 -5.03 -53.51 -5.27 -53.96 -5.47Z M-43.58 -5.47C-43.72 -5.54 -43.86 -5.57 -44 -5.57C-44.33 -5.57 -44.58 -5.35 -44.75 -4.9L-45.39 -3.17C-45.45 -3.31 -45.65 -3.86 -46 -4.84L-46.09 -5.02C-46.14 -5.13 -46.25 -5.24 -46.4 -5.35C-46.55 -5.46 -46.72 -5.52 -46.93 -5.52C-47.14 -5.52 -47.35 -5.42 -47.55 -5.22C-47.66 -5.11 -47.74 -4.99 -47.78 -4.85L-48.4 -3.16C-48.77 -4.19 -49.02 -4.84 -49.14 -5.12C-49.16 -5.19 -49.19 -5.25 -49.22 -5.31C-49.26 -5.36 -49.32 -5.42 -49.41 -5.48C-49.49 -5.54 -49.61 -5.57 -49.75 -5.57C-49.89 -5.57 -50.07 -5.53 -50.29 -5.44C-50.69 -5.28 -50.89 -5.06 -50.89 -4.78C-50.89 -4.71 -50.85 -4.58 -50.78 -4.37L-49.2 -0.52C-49.15 -0.4 -49.06 -0.27 -48.91 -0.15C-48.76 -0.03 -48.58 0.03 -48.37 0.03C-48.15 0.03 -47.96 -0.05 -47.79 -0.22C-47.73 -0.28 -47.67 -0.36 -47.62 -0.44C-47.58 -0.52 -47.55 -0.58 -47.53 -0.61C-47.52 -0.64 -47.5 -0.71 -47.46 -0.8C-47.42 -0.89 -47.34 -1.13 -47.2 -1.51C-47.06 -1.89 -46.96 -2.16 -46.89 -2.33C-46.54 -1.38 -46.33 -0.84 -46.28 -0.7L-46.19 -0.52C-46.14 -0.4 -46.04 -0.27 -45.89 -0.15C-45.74 -0.03 -45.59 0.03 -45.43 0.03C-45.27 0.03 -45.14 0.01 -45.03 -0.04C-44.79 -0.17 -44.61 -0.38 -44.51 -0.69L-43.36 -3.49C-43.28 -3.69 -43.19 -3.92 -43.08 -4.18C-42.96 -4.44 -42.91 -4.63 -42.91 -4.75C-42.91 -5.03 -43.13 -5.27 -43.58 -5.47Z M-39.46 -1.72C-39.62 -1.87 -39.91 -1.94 -40.33 -1.94C-40.75 -1.94 -41.02 -1.84 -41.12 -1.63C-41.18 -1.53 -41.21 -1.43 -41.22 -1.35C-41.23 -1.26 -41.24 -1.14 -41.24 -0.98L-41.24 -0.94C-41.24 -0.57 -41.17 -0.32 -41.03 -0.19C-40.9 -0.06 -40.62 0.01 -40.2 0.01C-39.77 0.01 -39.51 -0.09 -39.41 -0.29C-39.34 -0.4 -39.31 -0.5 -39.3 -0.58C-39.29 -0.66 -39.28 -0.78 -39.28 -0.95L-39.28 -0.99C-39.28 -1.36 -39.34 -1.61 -39.46 -1.72Z M-33.31 -3.66C-33.15 -3.66 -33.03 -3.66 -32.95 -3.67C-32.87 -3.69 -32.78 -3.71 -32.67 -3.76C-32.49 -3.86 -32.39 -4.13 -32.39 -4.57C-32.39 -5.01 -32.48 -5.28 -32.66 -5.37C-32.77 -5.43 -32.86 -5.46 -32.94 -5.47C-33.02 -5.48 -33.14 -5.49 -33.3 -5.49C-33.45 -5.49 -33.68 -5.47 -33.99 -5.45L-33.99 -6.47C-33.99 -6.72 -34.01 -6.89 -34.04 -7C-34.13 -7.26 -34.42 -7.39 -34.89 -7.39C-35.34 -7.39 -35.61 -7.3 -35.7 -7.13C-35.75 -7.04 -35.78 -6.96 -35.79 -6.88C-35.81 -6.8 -35.81 -6.68 -35.81 -6.52L-35.81 -5.45L-36.16 -5.49C-36.32 -5.49 -36.46 -5.44 -36.57 -5.35C-36.64 -5.3 -36.69 -5.2 -36.72 -5.08C-36.76 -4.95 -36.77 -4.74 -36.77 -4.45C-36.77 -4.17 -36.72 -3.97 -36.62 -3.85C-36.52 -3.73 -36.39 -3.67 -36.24 -3.67C-36.09 -3.67 -35.94 -3.68 -35.81 -3.7L-35.81 -2.15C-35.81 -1.37 -35.62 -0.82 -35.25 -0.49C-34.87 -0.16 -34.32 0 -33.59 0C-33.44 0 -33.32 -0.01 -33.24 -0.02C-33.16 -0.03 -33.07 -0.06 -32.97 -0.1C-32.77 -0.2 -32.67 -0.47 -32.67 -0.91C-32.67 -1.29 -32.75 -1.52 -32.91 -1.61C-33.01 -1.67 -33.1 -1.7 -33.19 -1.71C-33.28 -1.72 -33.4 -1.72 -33.57 -1.72C-33.73 -1.72 -33.84 -1.77 -33.9 -1.85C-33.96 -1.93 -33.99 -2.07 -33.99 -2.26L-33.99 -3.7Z M-29.73 -4.59L-29.73 -0.92C-29.73 -0.75 -29.72 -0.63 -29.71 -0.55C-29.7 -0.48 -29.67 -0.39 -29.62 -0.28C-29.52 -0.09 -29.26 0 -28.82 0C-28.37 0 -28.1 -0.09 -28.01 -0.27C-27.96 -0.38 -27.92 -0.47 -27.91 -0.55C-27.9 -0.63 -27.9 -0.75 -27.9 -0.91L-27.9 -4.57C-27.9 -4.7 -27.9 -4.8 -27.91 -4.87C-27.91 -5.07 -27.98 -5.22 -28.1 -5.32C-28.23 -5.44 -28.47 -5.5 -28.81 -5.5C-29.25 -5.5 -29.52 -5.41 -29.62 -5.23C-29.67 -5.12 -29.7 -5.03 -29.71 -4.95C-29.72 -4.87 -29.73 -4.75 -29.73 -4.59ZM-28.28 -6.31C-28.15 -6.36 -28.06 -6.43 -28.01 -6.53C-27.95 -6.63 -27.92 -6.72 -27.91 -6.8C-27.9 -6.88 -27.9 -7 -27.9 -7.16C-27.9 -7.32 -27.9 -7.44 -27.91 -7.52C-27.92 -7.6 -27.96 -7.69 -28.01 -7.8C-28.1 -7.99 -28.37 -8.08 -28.81 -8.08C-29.25 -8.08 -29.52 -7.99 -29.62 -7.8C-29.67 -7.7 -29.7 -7.61 -29.71 -7.53C-29.72 -7.45 -29.73 -7.33 -29.73 -7.17C-29.73 -7.01 -29.72 -6.89 -29.71 -6.81C-29.7 -6.73 -29.67 -6.64 -29.62 -6.53C-29.56 -6.43 -29.47 -6.36 -29.34 -6.31C-29.21 -6.27 -29.03 -6.25 -28.81 -6.25C-28.59 -6.25 -28.42 -6.27 -28.28 -6.31Z M-24.97 1.49C-24.97 1.66 -24.96 1.77 -24.95 1.85C-24.94 1.93 -24.91 2.01 -24.86 2.11C-24.81 2.21 -24.72 2.28 -24.59 2.32C-24.46 2.36 -24.29 2.38 -24.07 2.38C-23.85 2.38 -23.68 2.36 -23.56 2.32C-23.43 2.28 -23.34 2.21 -23.29 2.11C-23.24 2.01 -23.21 1.92 -23.2 1.84C-23.19 1.76 -23.18 1.64 -23.18 1.48L-23.18 -0.63C-22.92 -0.31 -22.51 -0.15 -21.94 -0.15C-21.37 -0.15 -20.83 -0.41 -20.32 -0.95C-19.82 -1.49 -19.56 -2.11 -19.56 -2.82C-19.56 -3.53 -19.82 -4.16 -20.33 -4.69C-20.84 -5.23 -21.38 -5.5 -21.94 -5.5C-22.51 -5.5 -22.93 -5.32 -23.19 -4.96C-23.21 -5.14 -23.29 -5.27 -23.42 -5.37C-23.55 -5.46 -23.8 -5.51 -24.16 -5.51C-24.53 -5.51 -24.77 -5.42 -24.87 -5.23C-24.91 -5.13 -24.94 -5.04 -24.95 -4.97C-24.96 -4.89 -24.97 -4.77 -24.97 -4.61ZM-23.14 -2.81C-23.14 -3.04 -23.06 -3.24 -22.9 -3.43C-22.74 -3.62 -22.53 -3.71 -22.26 -3.71C-21.99 -3.71 -21.77 -3.62 -21.6 -3.43C-21.44 -3.25 -21.35 -3.04 -21.35 -2.81C-21.35 -2.58 -21.44 -2.38 -21.62 -2.2C-21.8 -2.01 -22.01 -1.92 -22.27 -1.92C-22.52 -1.92 -22.73 -2.02 -22.89 -2.2C-23.06 -2.39 -23.14 -2.59 -23.14 -2.81Z M-16.07 -4.82C-16.66 -4.28 -16.95 -3.59 -16.95 -2.75C-16.95 -2.19 -16.8 -1.69 -16.51 -1.25C-16.21 -0.81 -15.85 -0.47 -15.41 -0.25C-14.98 -0.02 -14.54 0.09 -14.08 0.09C-13.62 0.09 -13.17 -0.01 -12.74 -0.22C-12.31 -0.44 -11.95 -0.77 -11.65 -1.22C-11.35 -1.67 -11.2 -2.18 -11.2 -2.76C-11.2 -3.6 -11.49 -4.28 -12.07 -4.82C-12.65 -5.36 -13.31 -5.63 -14.07 -5.63C-14.82 -5.63 -15.49 -5.36 -16.07 -4.82ZM-14.09 -1.75C-14.32 -1.75 -14.54 -1.83 -14.77 -2C-14.99 -2.17 -15.1 -2.43 -15.1 -2.77C-15.1 -3.1 -14.99 -3.36 -14.78 -3.53C-14.56 -3.71 -14.33 -3.79 -14.08 -3.79C-13.83 -3.79 -13.59 -3.71 -13.38 -3.54C-13.16 -3.38 -13.05 -3.12 -13.05 -2.78C-13.05 -2.44 -13.17 -2.18 -13.4 -2.01C-13.63 -1.83 -13.86 -1.75 -14.09 -1.75Z M-5.98 -0.02C-5.71 -0.02 -5.45 -0.1 -5.21 -0.25C-5.12 -0.31 -5.03 -0.39 -4.93 -0.48C-4.83 -0.57 -4.77 -0.64 -4.74 -0.69C-4.74 -0.52 -4.71 -0.38 -4.64 -0.26C-4.54 -0.09 -4.28 -0.01 -3.85 -0.01C-3.42 -0.01 -3.15 -0.1 -3.05 -0.28C-2.99 -0.38 -2.96 -0.47 -2.95 -0.55C-2.94 -0.63 -2.93 -0.75 -2.93 -0.9L-2.93 -4.6C-2.93 -4.76 -2.94 -4.88 -2.95 -4.96C-2.96 -5.04 -2.99 -5.13 -3.04 -5.24C-3.13 -5.43 -3.4 -5.52 -3.84 -5.52C-4.29 -5.52 -4.56 -5.43 -4.65 -5.25C-4.7 -5.14 -4.74 -5.05 -4.75 -4.97C-4.76 -4.89 -4.76 -4.77 -4.76 -4.61L-4.76 -2.76C-4.76 -2.49 -4.85 -2.27 -5.02 -2.1C-5.19 -1.93 -5.41 -1.85 -5.69 -1.85C-5.96 -1.85 -6.18 -1.93 -6.35 -2.09C-6.51 -2.25 -6.59 -2.47 -6.59 -2.76L-6.59 -4.59C-6.59 -4.83 -6.61 -5.01 -6.65 -5.12C-6.74 -5.39 -7.02 -5.52 -7.51 -5.52C-7.96 -5.52 -8.23 -5.43 -8.33 -5.24C-8.38 -5.13 -8.41 -5.04 -8.42 -4.97C-8.43 -4.89 -8.43 -4.77 -8.43 -4.6L-8.43 -2.77C-8.43 -2 -8.2 -1.35 -7.74 -0.82C-7.27 -0.29 -6.69 -0.02 -5.98 -0.02Z M4.07 -5.23C3.98 -5.33 3.87 -5.4 3.74 -5.45C3.6 -5.49 3.48 -5.52 3.37 -5.54C3.26 -5.55 3.12 -5.56 2.96 -5.56C2.79 -5.56 2.6 -5.5 2.39 -5.38C2.17 -5.27 2.03 -5.17 1.97 -5.1C1.9 -5.03 1.85 -4.97 1.81 -4.92C1.81 -5.04 1.78 -5.16 1.7 -5.27C1.59 -5.43 1.33 -5.51 0.91 -5.51C0.47 -5.51 0.2 -5.42 0.1 -5.23C0.05 -5.13 0.02 -5.04 0.01 -4.96C0 -4.88 -0.01 -4.76 -0.01 -4.6L-0.01 -0.93L-0.01 -0.63C0.01 -0.43 0.07 -0.28 0.18 -0.18C0.33 -0.06 0.57 0 0.9 0C1.34 0 1.62 -0.09 1.72 -0.27C1.78 -0.38 1.81 -0.47 1.82 -0.55C1.83 -0.63 1.83 -0.75 1.83 -0.91L1.83 -3.1C1.83 -3.29 1.92 -3.45 2.08 -3.59C2.24 -3.72 2.42 -3.78 2.61 -3.78C2.8 -3.78 2.95 -3.76 3.06 -3.7C3.18 -3.65 3.3 -3.62 3.42 -3.62C3.67 -3.62 3.87 -3.75 4 -4.01C4.13 -4.28 4.2 -4.52 4.2 -4.75C4.2 -4.97 4.15 -5.13 4.07 -5.23Z M9.88 -5.5C9.37 -5.5 8.97 -5.33 8.69 -4.99L8.69 -7.16C8.69 -7.32 8.69 -7.44 8.68 -7.52C8.67 -7.6 8.63 -7.69 8.58 -7.8C8.49 -7.99 8.22 -8.08 7.78 -8.08C7.34 -8.08 7.07 -7.99 6.97 -7.8C6.92 -7.7 6.89 -7.61 6.88 -7.53C6.87 -7.45 6.86 -7.33 6.86 -7.17L6.86 -0.93C6.86 -0.77 6.87 -0.65 6.88 -0.57C6.89 -0.49 6.92 -0.4 6.97 -0.29C7.07 -0.1 7.33 -0.01 7.77 -0.01C8.32 -0.01 8.62 -0.18 8.67 -0.52C8.92 -0.19 9.34 -0.02 9.94 -0.02C10.53 -0.02 11.08 -0.29 11.6 -0.84C12.11 -1.39 12.37 -2.03 12.37 -2.75C12.37 -3.48 12.11 -4.12 11.59 -4.67C11.07 -5.22 10.5 -5.5 9.88 -5.5ZM9.61 -1.84C9.35 -1.84 9.14 -1.93 8.97 -2.12C8.8 -2.31 8.71 -2.52 8.71 -2.74C8.71 -2.97 8.8 -3.18 8.96 -3.38C9.12 -3.57 9.34 -3.67 9.62 -3.67C9.9 -3.67 10.12 -3.57 10.29 -3.38C10.46 -3.19 10.54 -2.98 10.54 -2.75C10.54 -2.52 10.45 -2.31 10.27 -2.12C10.09 -1.93 9.87 -1.84 9.61 -1.84Z M15.86 -4.82C15.28 -4.28 14.99 -3.59 14.99 -2.75C14.99 -2.19 15.13 -1.69 15.43 -1.25C15.73 -0.81 16.09 -0.47 16.52 -0.25C16.95 -0.02 17.4 0.09 17.86 0.09C18.32 0.09 18.77 -0.01 19.19 -0.22C19.62 -0.44 19.99 -0.77 20.29 -1.22C20.59 -1.67 20.74 -2.18 20.74 -2.76C20.74 -3.6 20.45 -4.28 19.87 -4.82C19.29 -5.36 18.62 -5.63 17.87 -5.63C17.12 -5.63 16.45 -5.36 15.86 -4.82ZM17.85 -1.75C17.62 -1.75 17.39 -1.83 17.17 -2C16.95 -2.17 16.84 -2.43 16.84 -2.77C16.84 -3.1 16.94 -3.36 17.16 -3.53C17.38 -3.71 17.61 -3.79 17.86 -3.79C18.11 -3.79 18.35 -3.71 18.56 -3.54C18.78 -3.38 18.89 -3.12 18.89 -2.78C18.89 -2.44 18.77 -2.18 18.54 -2.01C18.31 -1.83 18.08 -1.75 17.85 -1.75Z M23.51 -4.59L23.51 -0.92C23.51 -0.75 23.51 -0.63 23.52 -0.55C23.53 -0.48 23.56 -0.39 23.61 -0.28C23.71 -0.09 23.98 0 24.42 0C24.86 0 25.13 -0.09 25.22 -0.27C25.28 -0.38 25.31 -0.47 25.32 -0.55C25.33 -0.63 25.34 -0.75 25.34 -0.91L25.34 -4.57C25.34 -4.7 25.33 -4.8 25.33 -4.87C25.32 -5.07 25.26 -5.22 25.14 -5.32C25 -5.44 24.76 -5.5 24.43 -5.5C23.98 -5.5 23.71 -5.41 23.61 -5.23C23.56 -5.12 23.53 -5.03 23.52 -4.95C23.51 -4.87 23.51 -4.75 23.51 -4.59ZM24.95 -6.31C25.08 -6.36 25.17 -6.43 25.23 -6.53C25.28 -6.63 25.31 -6.72 25.32 -6.8C25.33 -6.88 25.34 -7 25.34 -7.16C25.34 -7.32 25.33 -7.44 25.32 -7.52C25.31 -7.6 25.28 -7.69 25.22 -7.8C25.13 -7.99 24.87 -8.08 24.43 -8.08C23.98 -8.08 23.71 -7.99 23.61 -7.8C23.56 -7.7 23.53 -7.61 23.52 -7.53C23.51 -7.45 23.51 -7.33 23.51 -7.17C23.51 -7.01 23.51 -6.89 23.52 -6.81C23.53 -6.73 23.56 -6.64 23.62 -6.53C23.67 -6.43 23.76 -6.36 23.89 -6.31C24.03 -6.27 24.2 -6.25 24.42 -6.25C24.64 -6.25 24.82 -6.27 24.95 -6.31Z M32.33 -5.23C32.25 -5.33 32.14 -5.4 32.01 -5.45C31.87 -5.49 31.75 -5.52 31.64 -5.54C31.53 -5.55 31.39 -5.56 31.23 -5.56C31.06 -5.56 30.87 -5.5 30.66 -5.38C30.44 -5.27 30.3 -5.17 30.23 -5.1C30.17 -5.03 30.12 -4.97 30.08 -4.92C30.08 -5.04 30.04 -5.16 29.97 -5.27C29.86 -5.43 29.6 -5.51 29.18 -5.51C28.74 -5.51 28.46 -5.42 28.37 -5.23C28.32 -5.13 28.29 -5.04 28.28 -4.96C28.27 -4.88 28.26 -4.76 28.26 -4.6L28.26 -0.93L28.26 -0.63C28.28 -0.43 28.34 -0.28 28.45 -0.18C28.6 -0.06 28.84 0 29.17 0C29.61 0 29.88 -0.09 29.99 -0.27C30.04 -0.38 30.08 -0.47 30.09 -0.55C30.1 -0.63 30.1 -0.75 30.1 -0.91L30.1 -3.1C30.1 -3.29 30.18 -3.45 30.35 -3.59C30.51 -3.72 30.69 -3.78 30.88 -3.78C31.06 -3.78 31.22 -3.76 31.33 -3.7C31.45 -3.65 31.57 -3.62 31.69 -3.62C31.94 -3.62 32.13 -3.75 32.27 -4.01C32.4 -4.28 32.47 -4.52 32.47 -4.75C32.47 -4.97 32.42 -5.13 32.33 -5.23Z M39.81 -2.46C40.02 -2.67 40.13 -2.98 40.13 -3.41C40.13 -3.84 40.01 -4.24 39.77 -4.6C39.32 -5.28 38.61 -5.62 37.64 -5.62C36.79 -5.62 36.08 -5.36 35.51 -4.84C34.94 -4.31 34.66 -3.61 34.66 -2.73C34.66 -2.03 34.88 -1.4 35.32 -0.84C35.54 -0.54 35.85 -0.31 36.25 -0.13C36.66 0.05 37.11 0.14 37.63 0.14C39.11 0.14 39.86 -0.17 39.86 -0.79C39.86 -0.93 39.81 -1.09 39.72 -1.28C39.56 -1.59 39.37 -1.75 39.15 -1.75C39.03 -1.75 38.89 -1.71 38.73 -1.63L38.61 -1.59C38.38 -1.51 38.07 -1.46 37.66 -1.46C37.43 -1.46 37.2 -1.53 36.97 -1.66C36.74 -1.79 36.63 -1.96 36.63 -2.15L39.1 -2.15C39.36 -2.15 39.6 -2.26 39.81 -2.46ZM37.92 -3.1L36.61 -3.1C36.61 -3.31 36.72 -3.51 36.94 -3.7C37.16 -3.88 37.39 -3.97 37.61 -3.97C37.84 -3.97 38.01 -3.92 38.14 -3.83C38.26 -3.73 38.32 -3.6 38.32 -3.44C38.32 -3.22 38.19 -3.1 37.92 -3.1Z M44.52 -1.72C44.36 -1.87 44.07 -1.94 43.65 -1.94C43.22 -1.94 42.96 -1.84 42.86 -1.63C42.8 -1.53 42.77 -1.43 42.76 -1.35C42.75 -1.26 42.74 -1.14 42.74 -0.98L42.74 -0.94C42.74 -0.57 42.81 -0.32 42.95 -0.19C43.08 -0.06 43.36 0.01 43.78 0.01C44.2 0.01 44.47 -0.09 44.57 -0.29C44.63 -0.4 44.67 -0.5 44.68 -0.58C44.69 -0.66 44.7 -0.78 44.7 -0.95L44.7 -0.99C44.7 -1.36 44.64 -1.61 44.52 -1.72Z M49.48 -2.06C49.29 -2.23 49.19 -2.46 49.19 -2.75C49.19 -3.05 49.29 -3.28 49.5 -3.45C49.7 -3.62 49.92 -3.7 50.15 -3.7C50.38 -3.7 50.56 -3.64 50.69 -3.52C50.93 -3.37 51.12 -3.29 51.25 -3.29C51.48 -3.29 51.72 -3.48 51.97 -3.87C52.12 -4.09 52.19 -4.29 52.19 -4.47C52.19 -4.65 52.1 -4.81 51.92 -4.94C51.85 -4.99 51.75 -5.06 51.63 -5.14L51.46 -5.25C51.34 -5.32 51.16 -5.39 50.91 -5.46C50.66 -5.54 50.4 -5.57 50.13 -5.57C49.48 -5.57 48.86 -5.34 48.28 -4.88C48 -4.66 47.76 -4.36 47.58 -4C47.4 -3.63 47.31 -3.23 47.31 -2.78C47.31 -2.33 47.4 -1.91 47.58 -1.54C47.76 -1.17 48 -0.87 48.28 -0.65C48.88 -0.18 49.51 0.05 50.15 0.05C50.73 0.05 51.22 -0.09 51.62 -0.37C52 -0.6 52.19 -0.84 52.19 -1.11C52.19 -1.27 52.11 -1.45 51.95 -1.65C51.65 -2.02 51.4 -2.21 51.19 -2.21C51.07 -2.21 50.92 -2.14 50.72 -2.01C50.53 -1.88 50.33 -1.82 50.11 -1.82C49.89 -1.82 49.68 -1.9 49.48 -2.06Z M55.68 -4.82C55.1 -4.28 54.81 -3.59 54.81 -2.75C54.81 -2.19 54.95 -1.69 55.25 -1.25C55.55 -0.81 55.91 -0.47 56.34 -0.25C56.77 -0.02 57.22 0.09 57.68 0.09C58.14 0.09 58.58 -0.01 59.01 -0.22C59.44 -0.44 59.81 -0.77 60.11 -1.22C60.41 -1.67 60.56 -2.18 60.56 -2.76C60.56 -3.6 60.27 -4.28 59.69 -4.82C59.11 -5.36 58.44 -5.63 57.69 -5.63C56.94 -5.63 56.27 -5.36 55.68 -4.82ZM57.67 -1.75C57.44 -1.75 57.21 -1.83 56.99 -2C56.77 -2.17 56.66 -2.43 56.66 -2.77C56.66 -3.1 56.76 -3.36 56.98 -3.53C57.2 -3.71 57.43 -3.79 57.68 -3.79C57.93 -3.79 58.17 -3.71 58.38 -3.54C58.6 -3.38 58.71 -3.12 58.71 -2.78C58.71 -2.44 58.59 -2.18 58.36 -2.01C58.13 -1.83 57.9 -1.75 57.67 -1.75Z M65.12 -4.78C65.12 -5.01 65.06 -5.2 64.95 -5.32C64.83 -5.45 64.57 -5.51 64.18 -5.51C63.79 -5.51 63.55 -5.42 63.44 -5.23C63.39 -5.13 63.35 -5.04 63.34 -4.96C63.33 -4.88 63.33 -4.76 63.33 -4.6L63.33 -0.92C63.33 -0.75 63.33 -0.63 63.34 -0.55C63.35 -0.48 63.38 -0.39 63.43 -0.28C63.53 -0.09 63.8 0 64.24 0C64.67 0 64.95 -0.09 65.05 -0.27C65.11 -0.38 65.14 -0.47 65.15 -0.55C65.16 -0.63 65.17 -0.75 65.17 -0.91L65.17 -2.76C65.17 -3.37 65.37 -3.67 65.79 -3.67C66.23 -3.67 66.44 -3.37 66.44 -2.76L66.44 -0.93C66.44 -0.77 66.45 -0.65 66.46 -0.57C66.47 -0.49 66.5 -0.4 66.55 -0.29C66.64 -0.1 66.91 0 67.35 0C67.8 0 68.07 -0.09 68.17 -0.28C68.22 -0.39 68.26 -0.48 68.27 -0.55C68.28 -0.63 68.28 -0.75 68.28 -0.92L68.28 -2.75C68.28 -3.04 68.32 -3.27 68.41 -3.43C68.5 -3.59 68.66 -3.67 68.91 -3.67C69.34 -3.67 69.56 -3.37 69.56 -2.76L69.56 -0.93C69.56 -0.77 69.56 -0.65 69.57 -0.57C69.58 -0.49 69.61 -0.4 69.66 -0.29C69.76 -0.1 70.03 0 70.47 0C70.91 0 71.18 -0.09 71.27 -0.28C71.33 -0.39 71.36 -0.48 71.37 -0.56C71.38 -0.64 71.39 -0.76 71.39 -0.92L71.39 -2.75C71.39 -3.74 71.2 -4.45 70.82 -4.88C70.45 -5.31 69.98 -5.52 69.42 -5.52C69.17 -5.52 68.93 -5.45 68.69 -5.32C68.45 -5.18 68.28 -5.05 68.17 -4.94C68.06 -4.82 67.97 -4.71 67.89 -4.61C67.55 -5.22 67.02 -5.52 66.31 -5.52C65.85 -5.52 65.45 -5.27 65.12 -4.78Z"></path></g></g></g></svg>